<mxfile host="app.diagrams.net" modified="2024-04-29T22:07:09.777Z" agent="Mozilla/5.0 (Windows NT 10.0; Win64; x64; rv:124.0) Gecko/20100101 Firefox/124.0" etag="4HSncSVVi411wz1HsfwB" version="24.3.0" type="device">
  <diagram name="Seite-1" id="efW7UqVlO1dVeLcxlnHj">
    <mxGraphModel dx="1434" dy="794" grid="0" gridSize="10" guides="1" tooltips="1" connect="1" arrows="1" fold="1" page="1" pageScale="1" pageWidth="1169" pageHeight="1654" math="0" shadow="0">
      <root>
        <mxCell id="0" />
        <mxCell id="1" parent="0" />
        <mxCell id="rMOUCZnEWzfUyHHhB_26-4" value="" style="edgeStyle=orthogonalEdgeStyle;rounded=0;orthogonalLoop=1;jettySize=auto;html=1;" edge="1" parent="1" source="rMOUCZnEWzfUyHHhB_26-1" target="rMOUCZnEWzfUyHHhB_26-3">
          <mxGeometry relative="1" as="geometry" />
        </mxCell>
        <mxCell id="rMOUCZnEWzfUyHHhB_26-1" value="&lt;font size=&quot;1&quot;&gt;&lt;b style=&quot;font-size: 18px;&quot;&gt;Input: video features&lt;/b&gt;&lt;/font&gt;" style="rounded=0;whiteSpace=wrap;html=1;" vertex="1" parent="1">
          <mxGeometry x="303" y="96" width="236" height="60" as="geometry" />
        </mxCell>
        <mxCell id="rMOUCZnEWzfUyHHhB_26-6" value="" style="edgeStyle=orthogonalEdgeStyle;rounded=0;orthogonalLoop=1;jettySize=auto;html=1;" edge="1" parent="1" source="rMOUCZnEWzfUyHHhB_26-2" target="rMOUCZnEWzfUyHHhB_26-5">
          <mxGeometry relative="1" as="geometry" />
        </mxCell>
        <mxCell id="rMOUCZnEWzfUyHHhB_26-2" value="&lt;font size=&quot;1&quot;&gt;&lt;b style=&quot;font-size: 18px;&quot;&gt;Input: audio features&lt;/b&gt;&lt;/font&gt;" style="rounded=0;whiteSpace=wrap;html=1;" vertex="1" parent="1">
          <mxGeometry x="606" y="96" width="236" height="60" as="geometry" />
        </mxCell>
        <mxCell id="rMOUCZnEWzfUyHHhB_26-10" value="" style="edgeStyle=orthogonalEdgeStyle;rounded=0;orthogonalLoop=1;jettySize=auto;html=1;" edge="1" parent="1" source="rMOUCZnEWzfUyHHhB_26-3" target="rMOUCZnEWzfUyHHhB_26-9">
          <mxGeometry relative="1" as="geometry" />
        </mxCell>
        <mxCell id="rMOUCZnEWzfUyHHhB_26-3" value="&lt;b&gt;&lt;font style=&quot;font-size: 16px;&quot;&gt;AVG Pool&lt;/font&gt;&lt;/b&gt;" style="whiteSpace=wrap;html=1;rounded=0;" vertex="1" parent="1">
          <mxGeometry x="361" y="200" width="120" height="60" as="geometry" />
        </mxCell>
        <mxCell id="rMOUCZnEWzfUyHHhB_26-12" value="" style="edgeStyle=orthogonalEdgeStyle;rounded=0;orthogonalLoop=1;jettySize=auto;html=1;" edge="1" parent="1" source="rMOUCZnEWzfUyHHhB_26-5" target="rMOUCZnEWzfUyHHhB_26-11">
          <mxGeometry relative="1" as="geometry" />
        </mxCell>
        <mxCell id="rMOUCZnEWzfUyHHhB_26-5" value="&lt;font style=&quot;font-size: 16px;&quot;&gt;&lt;b&gt;&lt;font style=&quot;font-size: 16px;&quot;&gt;AVG Pool&lt;/font&gt;&lt;/b&gt;&lt;/font&gt;" style="whiteSpace=wrap;html=1;rounded=0;" vertex="1" parent="1">
          <mxGeometry x="664" y="204" width="120" height="60" as="geometry" />
        </mxCell>
        <mxCell id="rMOUCZnEWzfUyHHhB_26-7" value="&lt;font style=&quot;font-size: 14px;&quot;&gt;&lt;b&gt;temporal dimension&lt;/b&gt;&lt;/font&gt;" style="text;html=1;align=center;verticalAlign=middle;whiteSpace=wrap;rounded=0;" vertex="1" parent="1">
          <mxGeometry x="791" y="206" width="80" height="56" as="geometry" />
        </mxCell>
        <mxCell id="rMOUCZnEWzfUyHHhB_26-8" value="&lt;font style=&quot;font-size: 14px;&quot;&gt;&lt;b&gt;temporal dimension&lt;/b&gt;&lt;/font&gt;" style="text;html=1;align=center;verticalAlign=middle;whiteSpace=wrap;rounded=0;" vertex="1" parent="1">
          <mxGeometry x="491" y="202" width="80" height="56" as="geometry" />
        </mxCell>
        <mxCell id="rMOUCZnEWzfUyHHhB_26-14" style="rounded=0;orthogonalLoop=1;jettySize=auto;html=1;exitX=0.75;exitY=1;exitDx=0;exitDy=0;entryX=0.5;entryY=0;entryDx=0;entryDy=0;" edge="1" parent="1" source="rMOUCZnEWzfUyHHhB_26-9" target="rMOUCZnEWzfUyHHhB_26-13">
          <mxGeometry relative="1" as="geometry" />
        </mxCell>
        <mxCell id="rMOUCZnEWzfUyHHhB_26-9" value="&lt;font style=&quot;font-size: 16px;&quot;&gt;&lt;b&gt;Pooled video&lt;br&gt;&lt;/b&gt;&lt;/font&gt;" style="whiteSpace=wrap;html=1;rounded=0;" vertex="1" parent="1">
          <mxGeometry x="361" y="340" width="120" height="60" as="geometry" />
        </mxCell>
        <mxCell id="rMOUCZnEWzfUyHHhB_26-15" style="rounded=0;orthogonalLoop=1;jettySize=auto;html=1;exitX=0.25;exitY=1;exitDx=0;exitDy=0;" edge="1" parent="1">
          <mxGeometry relative="1" as="geometry">
            <mxPoint x="575" y="472" as="targetPoint" />
            <mxPoint x="693" y="405" as="sourcePoint" />
          </mxGeometry>
        </mxCell>
        <mxCell id="rMOUCZnEWzfUyHHhB_26-11" value="&lt;font style=&quot;font-size: 16px;&quot;&gt;&lt;b&gt;Pooled audio&lt;br&gt;&lt;/b&gt;&lt;/font&gt;" style="whiteSpace=wrap;html=1;rounded=0;" vertex="1" parent="1">
          <mxGeometry x="664" y="344" width="120" height="60" as="geometry" />
        </mxCell>
        <mxCell id="rMOUCZnEWzfUyHHhB_26-17" value="" style="edgeStyle=orthogonalEdgeStyle;rounded=0;orthogonalLoop=1;jettySize=auto;html=1;" edge="1" parent="1" source="rMOUCZnEWzfUyHHhB_26-13" target="rMOUCZnEWzfUyHHhB_26-16">
          <mxGeometry relative="1" as="geometry" />
        </mxCell>
        <mxCell id="rMOUCZnEWzfUyHHhB_26-13" value="&lt;b style=&quot;font-size: 16px;&quot;&gt;Concatenation of pooled features&lt;br&gt;&lt;/b&gt;" style="rounded=0;whiteSpace=wrap;html=1;" vertex="1" parent="1">
          <mxGeometry x="437" y="472" width="273" height="60" as="geometry" />
        </mxCell>
        <mxCell id="rMOUCZnEWzfUyHHhB_26-19" value="" style="edgeStyle=orthogonalEdgeStyle;rounded=0;orthogonalLoop=1;jettySize=auto;html=1;" edge="1" parent="1" source="rMOUCZnEWzfUyHHhB_26-16" target="rMOUCZnEWzfUyHHhB_26-18">
          <mxGeometry relative="1" as="geometry" />
        </mxCell>
        <mxCell id="rMOUCZnEWzfUyHHhB_26-16" value="&lt;font size=&quot;1&quot;&gt;&lt;b style=&quot;font-size: 17px;&quot;&gt;Dense&lt;/b&gt;&lt;/font&gt;" style="rounded=0;whiteSpace=wrap;html=1;" vertex="1" parent="1">
          <mxGeometry x="493.5" y="612" width="160" height="60" as="geometry" />
        </mxCell>
        <mxCell id="rMOUCZnEWzfUyHHhB_26-18" value="&lt;font style=&quot;font-size: 18px;&quot;&gt;&lt;b&gt;Output Layer&lt;br&gt;&lt;/b&gt;&lt;/font&gt;" style="rounded=0;whiteSpace=wrap;html=1;" vertex="1" parent="1">
          <mxGeometry x="440" y="752" width="266" height="60" as="geometry" />
        </mxCell>
      </root>
    </mxGraphModel>
  </diagram>
</mxfile>
